<?xml version="1.0" encoding="UTF-8"?>
<svg version="1.1" xmlns="http://www.w3.org/2000/svg" width="800" height="800">
<path d="M0 0 C12.21 0 24.42 0 37 0 C37 4.29 37 8.58 37 13 C41.29 13 45.58 13 50 13 C50 16.96 50 20.92 50 25 C51.36382812 24.75765625 52.72765625 24.5153125 54.1328125 24.265625 C102.92057397 15.88016249 153.5238816 12.41099859 203 13 C203 9.7 203 6.4 203 3 C215.37405198 2.86694568 227.64938342 3.23322114 240 4 C240 7.3 240 10.6 240 14 C241.43448486 13.98042236 242.86896973 13.96084473 244.34692383 13.94067383 C259.53798712 13.79857185 274.54749653 14.48951958 289.6875 15.6875 C291.40190277 15.81946777 291.40190277 15.81946777 293.15093994 15.95410156 C313.55871423 17.53661072 333.78193349 19.82084337 354 23 C355.10279297 23.16999512 356.20558594 23.33999023 357.34179688 23.51513672 C379.90381305 27.03821629 402.29252623 31.8752551 424 39 C424.7336377 39.23686523 425.46727539 39.47373047 426.22314453 39.71777344 C446.2522852 46.23764106 471.83879737 55.50002967 482.1171875 75.41015625 C484.25512766 81.68207805 484.23785062 89.06887403 481.5625 95.1875 C476.22721748 104.06091725 468.66507897 110.55082663 460 116 C459.14414307 116.56364258 459.14414307 116.56364258 458.27099609 117.13867188 C452.97924639 120.5661159 447.49295963 123.28649398 441.75 125.875 C440.80213623 126.30409668 439.85427246 126.73319336 438.87768555 127.17529297 C414.53319803 138 414.53319803 138 407 138 C406.7215625 138.73734375 406.443125 139.4746875 406.15625 140.234375 C401.11473723 152.29312852 391.52198349 160.25551819 379.95703125 165.80859375 C366.49984333 171.23057831 350.2927943 171.036707 336.88671875 165.515625 C334.16650491 164.08742071 331.91650101 162.50890243 329.5 160.625 C324.51229437 156.91497987 319.66783316 157.85594394 313.74609375 158.5703125 C312.83988281 158.71210938 311.93367188 158.85390625 311 159 C311 161.64 311 164.28 311 167 C309.72715904 166.99333817 309.72715904 166.99333817 308.42860413 166.98654175 C297.63993939 166.93269753 286.85127852 166.89632532 276.0625 166.875 C275.1970821 166.87328796 274.3316642 166.87157593 273.44002151 166.86981201 C244.17301114 166.79275698 244.17301114 166.79275698 214.9375 168 C174.21553199 170.55915039 132.66834363 170.20653588 92 167 C90.37778303 166.87544114 88.75554926 166.75110093 87.13330078 166.62695312 C59.9024849 164.52735011 59.9024849 164.52735011 51.98168945 163.47485352 C48.2982381 163.00389257 44.65176439 162.81541137 40.9375 162.71875 C39.00003906 162.66267578 39.00003906 162.66267578 37.0234375 162.60546875 C35.68230344 162.56986631 34.34115738 162.53471307 33 162.5 C17.11357814 162.08881298 17.11357814 162.08881298 10 161 C10 159.68 10 158.36 10 157 C8.73414063 156.88011719 7.46828125 156.76023437 6.1640625 156.63671875 C0.81738184 156.03905039 -4.37654437 154.97786582 -9.625 153.8125 C-10.61773926 153.59327881 -11.61047852 153.37405762 -12.63330078 153.14819336 C-86.89255291 136.50387823 -86.89255291 136.50387823 -107.9375 107.3125 C-110.04852895 100.7310568 -110.34765026 92.99318801 -107.375 86.625 C-105.08223853 82.7764361 -102.3131528 79.02916827 -99 76 C-98.34 76 -97.68 76 -97 76 C-97 75.34 -97 74.68 -97 74 C-95.11405233 72.50645112 -93.2432844 71.14983397 -91.25 69.8125 C-90.65219727 69.4095874 -90.05439453 69.0066748 -89.43847656 68.59155273 C-88.20703931 67.76901914 -86.97231069 66.95139226 -85.734375 66.13867188 C-84.26268213 65.1724591 -82.80196336 64.18956345 -81.34375 63.203125 C-61.3701891 50.56924612 -25.07285695 35 -1 35 C-1.01160156 33.98164063 -1.02320313 32.96328125 -1.03515625 31.9140625 C-1.04456208 30.48437689 -1.05365917 29.05468922 -1.0625 27.625 C-1.07087891 26.965 -1.07925781 26.305 -1.08789062 25.625 C-1.12693805 17.03456673 -0.47949332 8.63087975 0 0 Z M253 24 C252.08597839 29.52873874 251.79218003 34.92506236 251.68359375 40.5234375 C251.66276733 41.44677383 251.64194092 42.37011017 251.6204834 43.32142639 C251.55448295 46.33920239 251.49554358 49.35706119 251.4375 52.375 C251.41632111 53.40424591 251.39514221 54.43349182 251.37332153 55.493927 C250.94054771 76.66666451 250.92463562 97.82260828 251 119 C265.85 119.33 280.7 119.66 296 120 C295.01 114.39 294.02 108.78 293 103 C291.93676598 85.13766854 296.54891748 67.81931126 308 54 C308.71736328 53.1028125 308.71736328 53.1028125 309.44921875 52.1875 C316.20892697 44.55941617 327.8301837 38.84879456 338 38 C351.07487391 37.25127976 362.22667508 38.56617862 373.94140625 44.9140625 C376.09815871 46.1232394 376.09815871 46.1232394 379 47 C379 47.66 379 48.32 379 49 C380.42561618 50.40613375 380.42561618 50.40613375 382.25 51.8125 C384.43994978 53.6221591 386.15915817 55.20023125 387.9375 57.4375 C390.34151334 60.42430445 393.05425943 62.71680859 396 65.15625 C406.82676056 75.13716989 411.46299609 90.11996611 412.11132812 104.46289062 C412.23429642 109.64739247 412.16196161 114.81722856 412 120 C428.28043277 115.43005396 443.21441217 105.83555832 453.875 92.6875 C456.14815785 87.25717846 456.79436624 81.46001034 454.9375 75.8125 C447.85543881 60.28166407 427.86455648 52.66773518 412.83203125 47.015625 C406.76642212 44.84485724 400.61383158 43.15651232 394.375 41.5625 C393.20130859 41.26174561 392.02761719 40.96099121 390.81835938 40.65112305 C378.9577375 37.66288934 367.04290516 35.1331306 355 33 C353.51185791 32.73558105 353.51185791 32.73558105 351.99365234 32.46582031 C319.39810475 26.83515207 286.05236748 24.43588843 253 24 Z M70 34 C68.31970703 34.2462915 68.31970703 34.2462915 66.60546875 34.49755859 C63.81899935 34.906943 61.03401203 35.32425781 58.25 35.75 C57.49299805 35.86545166 56.73599609 35.98090332 55.95605469 36.09985352 C52.69417092 36.40778055 52.69417092 36.40778055 50 38 C49.76374125 40.91580245 49.59576344 43.80899995 49.47265625 46.73046875 C49.43133072 47.6561113 49.39000519 48.58175385 49.34742737 49.53544617 C48.80891031 62.45489693 48.6408634 75.38439831 48.4375 88.3125 C48.39417567 90.91471848 48.35055769 93.51693208 48.30664062 96.11914062 C48.20105149 102.41270843 48.09905011 108.70632605 48 115 C53.96250772 115.74499124 59.74927676 116.13948003 65.75390625 116.09765625 C66.54022934 116.0962413 67.32655243 116.09482635 68.13670349 116.09336853 C70.61201015 116.08783672 73.08722137 116.07529775 75.5625 116.0625 C77.25585806 116.05747616 78.94921755 116.05291481 80.64257812 116.04882812 C84.7617547 116.03788978 88.88086125 116.02067362 93 116 C92.85852539 115.08943848 92.71705078 114.17887695 92.57128906 113.24072266 C89.58214128 93.3279552 89.99563252 74.94539816 100 57 C101.31468637 55.31858533 102.64274338 53.64724316 104 52 C104 51.34 104 50.68 104 50 C105.32 49.34 106.64 48.68 108 48 C108 47.34 108 46.68 108 46 C108.55300781 45.73058594 109.10601562 45.46117187 109.67578125 45.18359375 C112.22613432 43.88484252 114.69802686 42.47427914 117.1875 41.0625 C131.40247769 33.37365983 146.03414104 32.34737602 161.6484375 36.74609375 C171.60609744 40.2799636 179.37724543 46.83553708 186.09375 54.83203125 C188.56740591 57.64530795 191.31305851 60.01008797 194.16796875 62.42578125 C196.58031559 64.49865071 198.78675684 66.71759299 201 69 C201.81352241 63.32504784 202.13614934 57.85307186 202.09765625 52.125 C202.0962413 51.31506592 202.09482635 50.50513184 202.09336853 49.6706543 C202.08782383 47.11373006 202.07528207 44.55689724 202.0625 42 C202.05747784 40.25390753 202.05291619 38.50781366 202.04882812 36.76171875 C202.0378726 32.50777791 202.02064694 28.25390439 202 24 C157.73124857 23.63756302 113.76098166 27.45285831 70 34 Z M-74.58984375 83.47265625 C-80.18222026 89.33694734 -82.0915205 94.02464204 -82 102 C-80.74036049 108.99799729 -75.87845577 114.76292518 -70.375 119.0625 C-68.93154745 120.06347364 -67.47191374 121.041369 -66 122 C-64.79150391 122.81404297 -64.79150391 122.81404297 -63.55859375 123.64453125 C-47.22870466 133.93491655 -22.31891581 144 -3 144 C-1.97453007 138.84710485 -1.78484617 133.84165457 -1.68359375 128.609375 C-1.66276733 127.68735794 -1.64194092 126.76534088 -1.6204834 125.81538391 C-1.55435488 122.79367279 -1.49547759 119.77187778 -1.4375 116.75 C-1.41632111 115.71986786 -1.39514221 114.68973572 -1.37332153 113.62838745 C-0.9334166 92.08512072 -0.89004186 70.54671958 -1 49 C-24.22503629 49 -58.22861723 68.60538561 -74.58984375 83.47265625 Z M145.6171875 84.37109375 C139.3936853 92.14115487 138.08924279 102.34000142 139 112 C139.49903169 114.45250618 140.15904933 116.63482625 141 119 C146.01615953 119.29506821 148.99681229 119.13763361 153 116 C158.92448733 109.90126304 160.35882851 103.12983345 160.3125 94.9296875 C160.291875 94.00414062 160.27125 93.07859375 160.25 92.125 C160.24484375 91.17625 160.2396875 90.2275 160.234375 89.25 C160.34969889 84.46594967 160.34969889 84.46594967 159 80 C153.55991452 79.61142247 149.59953595 80.42249401 145.6171875 84.37109375 Z M349 87 C342.07943495 95.57023463 341.22901166 105.29512346 342 116 C342.48315734 118.47409877 343.13600957 120.62402633 344 123 C349.75909335 122.79792655 353.28082531 121.98082212 357.45703125 117.890625 C364.51754169 109.23926538 363.97720105 97.63329533 363 87 C362.67 86.01 362.34 85.02 362 84 C354.94988598 83.56771735 354.94988598 83.56771735 349 87 Z M96 124 C96 125.65 96 127.3 96 129 C96.99 128.67 97.98 128.34 99 128 C98.01 126.68 97.02 125.36 96 124 Z M299 129 C299 129.99 299 130.98 299 132 C299.66 131.67 300.32 131.34 301 131 C300.34 130.34 299.68 129.68 299 129 Z M109 141 C109 146.28 109 151.56 109 157 C112.18824568 158.59412284 115.62896662 158.10174735 119.125 158.0625 C120.25615234 158.05573242 120.25615234 158.05573242 121.41015625 158.04882812 C123.27347127 158.03703499 125.13674555 158.01909942 127 158 C123.52263974 154.21965377 123.52263974 154.21965377 119 152 C117.9375 150.125 117.9375 150.125 117 148 C116.34 147.01 115.68 146.02 115 145 C114.34 145 113.68 145 113 145 C113 144.34 113 143.68 113 143 C111.68 142.34 110.36 141.68 109 141 Z M199 144 C196.75547665 146.43002114 194.59497797 148.92791119 192.421875 151.421875 C190.09904847 153.8945613 187.69865851 155.95208184 185 158 C194.39355936 158.14256667 203.64072209 157.72492332 213 157 C213 155.68 213 154.36 213 153 C209.98509443 151.99503148 207.95818308 151.89664697 204.8125 151.9375 C203.91144531 151.94652344 203.01039063 151.95554687 202.08203125 151.96484375 C201.05142578 151.98224609 201.05142578 151.98224609 200 152 C200 149.36 200 146.72 200 144 C199.67 144 199.34 144 199 144 Z M311 144 C311 144.66 311 145.32 311 146 C311.66 145.67 312.32 145.34 313 145 C312.34 144.67 311.68 144.34 311 144 Z " fill="#F1EAE9" transform="translate(213,253)"/>
<path d="M0 0 C17.00360106 -0.24139557 33.80098417 0.3411599 50.75 1.6875 C52.46065643 1.81946777 52.46065643 1.81946777 54.20587158 1.95410156 C74.59462842 3.53788722 94.80053788 5.82376879 115 9 C116.65418945 9.25499268 116.65418945 9.25499268 118.34179688 9.51513672 C140.90381305 13.03821629 163.29252623 17.8752551 185 25 C186.10045654 25.35529785 186.10045654 25.35529785 187.22314453 25.71777344 C207.2522852 32.23764106 232.83879737 41.50002967 243.1171875 61.41015625 C245.25512766 67.68207805 245.23785062 75.06887403 242.5625 81.1875 C237.22721748 90.06091725 229.66507897 96.55082663 221 102 C220.14414307 102.56364258 220.14414307 102.56364258 219.27099609 103.13867188 C213.97924639 106.5661159 208.49295963 109.28649398 202.75 111.875 C201.80213623 112.30409668 200.85427246 112.73319336 199.87768555 113.17529297 C175.53319803 124 175.53319803 124 168 124 C167.58234375 125.10601562 167.58234375 125.10601562 167.15625 126.234375 C162.11473723 138.29312852 152.52198349 146.25551819 140.95703125 151.80859375 C127.49984333 157.23057831 111.2927943 157.036707 97.88671875 151.515625 C95.16650491 150.08742071 92.91650101 148.50890243 90.5 146.625 C85.51229437 142.91497987 80.66783316 143.85594394 74.74609375 144.5703125 C73.83988281 144.71210938 72.93367188 144.85390625 72 145 C72 147.64 72 150.28 72 153 C70.72715904 152.99333817 70.72715904 152.99333817 69.42860413 152.98654175 C58.63993939 152.93269753 47.85127852 152.89632532 37.0625 152.875 C36.1970821 152.87328796 35.3316642 152.87157593 34.44002151 152.86981201 C5.17301114 152.79275698 5.17301114 152.79275698 -24.0625 154 C-64.78446801 156.55915039 -106.33165637 156.20653588 -147 153 C-148.62221697 152.87544114 -150.24445074 152.75110093 -151.86669922 152.62695312 C-179.0975151 150.52735011 -179.0975151 150.52735011 -187.01831055 149.47485352 C-190.7017619 149.00389257 -194.34823561 148.81541137 -198.0625 148.71875 C-199.99996094 148.66267578 -199.99996094 148.66267578 -201.9765625 148.60546875 C-203.31769656 148.56986631 -204.65884262 148.53471307 -206 148.5 C-221.88642186 148.08881298 -221.88642186 148.08881298 -229 147 C-229 145.68 -229 144.36 -229 143 C-230.26585937 142.88011719 -231.53171875 142.76023437 -232.8359375 142.63671875 C-238.18261816 142.03905039 -243.37654437 140.97786582 -248.625 139.8125 C-249.61773926 139.59327881 -250.61047852 139.37405762 -251.63330078 139.14819336 C-325.89255291 122.50387823 -325.89255291 122.50387823 -346.9375 93.3125 C-349.04852895 86.7310568 -349.34765026 78.99318801 -346.375 72.625 C-344.08223853 68.7764361 -341.3131528 65.02916827 -338 62 C-337.34 62 -336.68 62 -336 62 C-336 61.34 -336 60.68 -336 60 C-334.11405233 58.50645112 -332.2432844 57.14983397 -330.25 55.8125 C-329.65219727 55.4095874 -329.05439453 55.0066748 -328.43847656 54.59155273 C-327.20703931 53.76901914 -325.97231069 52.95139226 -324.734375 52.13867188 C-323.26268213 51.1724591 -321.80196336 50.18956345 -320.34375 49.203125 C-299.90534841 36.27522038 -263.58320734 21 -239 21 C-239 25.62 -239 30.24 -239 35 C-240.546875 35.50789063 -242.09375 36.01578125 -243.6875 36.5390625 C-261.39911003 42.37830547 -278.53171673 48.17968349 -295 57 C-295.94875 57.50402344 -296.8975 58.00804687 -297.875 58.52734375 C-305.88924391 63.0478782 -315.01119922 69.50212009 -319 78 C-320.45759484 84.67425008 -320.42091426 89.90890795 -316.87890625 95.89453125 C-302.0475807 117.86842151 -265.67510327 123.91921899 -242 130 C-241.67 131.32 -241.34 132.64 -241 134 C-240.35997543 134.01030746 -239.71995087 134.02061493 -239.06053162 134.03123474 C-207.36923855 134.54332931 -175.68300269 135.10403061 -144 136 C-144 129.07 -144 122.14 -144 115 C-139 115 -139 115 -136.54296875 116.80859375 C-131.04049768 122.94982597 -129.18254474 126.99430801 -129.4375 135.1875 C-129.623125 137.765625 -129.80875 140.34375 -130 143 C-124.39 143 -118.78 143 -113 143 C-114.0725 142.278125 -115.145 141.55625 -116.25 140.8125 C-119.41628768 138.55178344 -121.8022768 136.25263034 -124 133 C-124 132.34 -124 131.68 -124 131 C-121.17987106 132.11095989 -118.43093278 133.26842793 -115.6875 134.5625 C-104.07955262 139.08763203 -87.14192914 138.82507486 -75.6484375 134.26953125 C-61.33442338 127.4080938 -51.42310452 116.86126643 -45.87109375 101.97265625 C-40.14932208 83.93013582 -41.27845363 65.14221155 -49.8125 48.3125 C-50.47185547 47.13107422 -50.47185547 47.13107422 -51.14453125 45.92578125 C-51.42683594 45.29027344 -51.70914062 44.65476562 -52 44 C-51.67 43.34 -51.34 42.68 -51 42 C-49.76552296 43.03536784 -48.53771988 44.07869393 -47.3125 45.125 C-46.62800781 45.70507812 -45.94351562 46.28515625 -45.23828125 46.8828125 C-38.28784656 53.45722018 -38.28784656 53.45722018 -37.35835266 58.4390564 C-37.35135849 59.69844025 -37.34436432 60.9578241 -37.3371582 62.25537109 C-37.32679031 62.95540756 -37.31642242 63.65544403 -37.30574036 64.37669373 C-37.27877739 66.67621583 -37.28830881 68.97381569 -37.30078125 71.2734375 C-37.29486697 72.88238044 -37.287618 74.49131898 -37.27909851 76.10025024 C-37.26723609 79.46778334 -37.27389372 82.8346548 -37.29321289 86.20214844 C-37.3160692 90.50208007 -37.28934899 94.80003146 -37.24815083 99.09976768 C-37.22247922 102.42175545 -37.22517834 105.74327551 -37.23604393 109.06532669 C-37.23752357 110.64965231 -37.22992252 112.23401504 -37.21279335 113.81824875 C-37.08709758 127.69788524 -37.08709758 127.69788524 -40.54760742 132.59619141 C-44.22024765 136.2171482 -48.1185997 139.60377474 -52 143 C-43.42 143 -34.84 143 -26 143 C-26 141.35 -26 139.7 -26 138 C-8.62626166 137.91077044 8.73937454 138.17444967 26.10992432 138.46356201 C29.83172628 138.5251331 33.55355977 138.58473687 37.27539062 138.64453125 C44.51695863 138.76115064 51.75848631 138.88004718 59 139 C59 132.07 59 125.14 59 118 C64.5114231 119.10228462 65.0672915 119.6580624 68.3125 123.875 C69.00988281 124.75929688 69.70726562 125.64359375 70.42578125 126.5546875 C72 129 72 129 72 132 C72.84433594 132.0928125 73.68867187 132.185625 74.55859375 132.28125 C78.44431867 133.09279754 81.60410106 134.63403828 85.0625 136.5 C95.61426862 142.15638404 110.04014983 143.12933965 121.72265625 139.890625 C138.18380093 133.45299038 148.67576367 124.11736305 155.9921875 107.8984375 C158.93974046 99.42136659 159.30902704 91.44259684 159.25 82.5 C159.25773437 81.32824219 159.26546875 80.15648437 159.2734375 78.94921875 C159.2523132 69.53834414 158.37796799 61.92670866 153.875 53.5625 C151 48.17703349 151 48.17703349 151 46 C161.02547837 50.56913395 166.12170427 60.11906045 170.20166016 69.86230469 C174.30728396 80.85583437 176.04364553 94.63665004 173 106 C197.96405971 95.66295428 197.96405971 95.66295428 215 76 C216.52997581 69.07294416 215.92409721 64.41052081 213 58 C212.67 57.01 212.34 56.02 212 55 C211.01 54.67 210.02 54.34 209 54 C208.26523437 53.24589844 207.53046875 52.49179687 206.7734375 51.71484375 C203.62397981 48.6319239 200.46319677 46.6677987 196.625 44.5625 C195.92093018 44.17344482 195.21686035 43.78438965 194.49145508 43.38354492 C187.55226902 39.63106035 180.43633687 36.6204061 173 34 C171.98341309 33.63527588 171.98341309 33.63527588 170.94628906 33.26318359 C149.28367494 25.60614107 126.46153176 21.79994893 103.80004883 18.43530273 C101.98369455 18.15292766 100.17051092 17.84899537 98.36206055 17.51977539 C88.24893786 15.6845271 78.04114345 14.85044511 67.8125 13.9375 C66.35224396 13.80485245 66.35224396 13.80485245 64.86248779 13.66952515 C50.67354426 12.38573857 36.52955623 11.35872655 22.27783203 11.1418457 C19.49781233 10.96872765 16.74750628 10.45791771 14 10 C13.34 41.35 12.68 72.7 12 105 C7.71 105 3.42 105 -1 105 C-1.02345307 95.00106846 -1.04107936 85.00214376 -1.05181217 75.00319004 C-1.05697043 70.35734123 -1.06393498 65.7115116 -1.07543945 61.06567383 C-1.12462021 40.6870659 -1.13024323 20.35520382 0 0 Z " fill="#913242" transform="translate(452,267)"/>
<path d="M0 0 C12.21 0 24.42 0 37 0 C37.07764929 22.90653913 37.03297362 45.78641937 36.5625 68.6875 C36.54285187 69.68079315 36.52320374 70.6740863 36.50296021 71.69747925 C36.20530773 86.47466204 35.66746372 101.23505356 35 116 C35.56248444 115.96265747 36.12496887 115.92531494 36.70449829 115.88684082 C55.50392193 114.65549967 74.19293254 115.31489206 93 116 C92.52397339 114.63439941 92.52397339 114.63439941 92.03833008 113.24121094 C86.35086296 95.48743397 89.9893243 75.17296927 97.97753906 58.87036133 C104.6384323 46.68576174 116.27890175 38.49167915 129.50390625 34.53125 C143.97300755 31.45175426 159.14763543 32.85081268 171.81640625 40.7578125 C182.57034507 48.21972923 188.14560358 55.87100376 193 68 C193.41636719 68.96292969 193.83273437 69.92585938 194.26171875 70.91796875 C200.66956852 87.93811709 197.96463867 107.43870426 190.80078125 123.7265625 C189.65680746 125.93849854 188.41318941 127.95107781 187 130 C186.49855469 130.75539063 185.99710938 131.51078125 185.48046875 132.2890625 C178.01822574 142.73969791 166.51056585 149.30521479 154 152 C141.96085431 152.85746848 129.52257966 152.95422044 118.7890625 146.90234375 C116.88183759 145.9404028 115.08324179 145.44509792 113 145 C113 144.34 113 143.68 113 143 C112.45730469 142.8040625 111.91460937 142.608125 111.35546875 142.40625 C107.95262575 140.37470194 105.80432214 137.5429934 103.3125 134.5 C102.81427734 133.90574219 102.31605469 133.31148437 101.80273438 132.69921875 C98.16003667 128.32007334 98.16003667 128.32007334 97 126 C96.04831317 128.85506049 95.8099054 130.90937282 95.68359375 133.88671875 C95.64169922 134.82451172 95.59980469 135.76230469 95.55664062 136.72851562 C95.51732422 137.70498047 95.47800781 138.68144531 95.4375 139.6875 C95.37272461 141.16959961 95.37272461 141.16959961 95.30664062 142.68164062 C95.20058346 145.12095546 95.09852286 147.56037113 95 150 C73.39021454 150.12167672 51.7936181 149.99886358 30.1875 149.5625 C28.63313232 149.5330278 28.63313232 149.5330278 27.04736328 149.50296021 C24.06661354 149.44541734 21.08605179 149.38196896 18.10546875 149.31640625 C17.23081467 149.29968872 16.35616058 149.28297119 15.45500183 149.26574707 C9.59842703 149.12600486 3.82051126 148.65957425 -2 148 C-3.30684003 144.07947992 -3.03840764 140.41671208 -2.92993164 136.33886719 C-2.91057053 135.45188141 -2.89120941 134.56489563 -2.8712616 133.65103149 C-2.82833348 131.71780814 -2.78291759 129.78463883 -2.73533821 127.85152435 C-2.659239 124.7596071 -2.58951266 121.66760218 -2.52134705 118.57550049 C-2.3991852 113.08322496 -2.2712603 107.59110073 -2.14154053 102.09899902 C-1.91200523 92.37343781 -1.68925931 82.6477325 -1.47265625 72.921875 C-1.4490163 71.87415421 -1.42537636 70.82643341 -1.40102005 69.7469635 C-1.09094799 55.85276038 -0.88193266 41.96916865 -1.03370667 28.07147217 C-1.1102406 18.62868579 -0.52802331 9.50441961 0 0 Z M145.6171875 84.37109375 C139.3936853 92.14115487 138.08924279 102.34000142 139 112 C139.49903169 114.45250618 140.15904933 116.63482625 141 119 C146.01615953 119.29506821 148.99681229 119.13763361 153 116 C158.92448733 109.90126304 160.35882851 103.12983345 160.3125 94.9296875 C160.291875 94.00414062 160.27125 93.07859375 160.25 92.125 C160.24484375 91.17625 160.2396875 90.2275 160.234375 89.25 C160.34969889 84.46594967 160.34969889 84.46594967 159 80 C153.55991452 79.61142247 149.59953595 80.42249401 145.6171875 84.37109375 Z " fill="#F0E9E8" transform="translate(213,253)"/>
<path d="M0 0 C9.05363329 5.22231138 15.31416353 11.26863727 19.8984375 20.671875 C20.22457031 21.31253906 20.55070312 21.95320313 20.88671875 22.61328125 C26.43051507 34.35772179 25.29849528 52.53089339 21.9375 64.78125 C17.28361529 77.72814731 9.2051177 87.74178429 -3.265625 93.70703125 C-13.14641613 97.35715168 -25.95274767 97.39190368 -35.7265625 93.546875 C-41.95847284 90.49150785 -48.24326577 87.25161746 -51.1015625 80.671875 C-51.7615625 80.671875 -52.4215625 80.671875 -53.1015625 80.671875 C-62.18085203 63.6534858 -66.87589923 46.69604377 -61.1328125 27.47265625 C-56.04238198 13.64750972 -49.17589351 5.03202896 -35.703125 -1.234375 C-25.00694798 -5.73126624 -10.41616966 -4.76626787 0 0 Z M-17.484375 37.04296875 C-23.7078772 44.81302987 -25.01231971 55.01187642 -24.1015625 64.671875 C-23.60253081 67.12438118 -22.94251317 69.30670125 -22.1015625 71.671875 C-17.08540297 71.96694321 -14.10475021 71.80950861 -10.1015625 68.671875 C-4.17707517 62.57313804 -2.74273399 55.80170845 -2.7890625 47.6015625 C-2.8096875 46.67601562 -2.8303125 45.75046875 -2.8515625 44.796875 C-2.85671875 43.848125 -2.861875 42.899375 -2.8671875 41.921875 C-2.75186361 37.13782467 -2.75186361 37.13782467 -4.1015625 32.671875 C-9.54164798 32.28329747 -13.50202655 33.09436901 -17.484375 37.04296875 Z " fill="#AE6C79" transform="translate(376.1015625,300.328125)"/>
<path d="M0 0 C0.85980469 0.64453125 1.71960938 1.2890625 2.60546875 1.953125 C2.60546875 2.613125 2.60546875 3.273125 2.60546875 3.953125 C3.20359375 4.19933594 3.80171875 4.44554687 4.41796875 4.69921875 C11.25901378 8.62060349 15.2149969 19.07067272 17.29296875 26.3671875 C18.54117252 32.10545763 18.80200444 37.79010167 18.85546875 43.640625 C18.86481445 44.34123047 18.87416016 45.04183594 18.88378906 45.76367188 C18.80468877 58.69961211 13.47021191 71.64331991 4.6171875 81.0703125 C-6.62828563 91.24582799 -17.4622601 92.65656762 -32.10302734 92.09228516 C-42.4752089 91.46239559 -50.17232298 86.06715193 -57.46875 78.921875 C-66.19579282 68.77503128 -68.5739115 55.6460022 -68.58203125 42.703125 C-68.59427734 41.69121094 -68.60652344 40.67929687 -68.61914062 39.63671875 C-68.64733621 25.14418684 -63.63328842 13.50040405 -53.54296875 3.0078125 C-38.70159665 -11.18593609 -16.74583774 -10.09760526 0 0 Z M-22.39453125 32.953125 C-29.3150963 41.52335963 -30.16551959 51.24824846 -29.39453125 61.953125 C-28.91137391 64.42722377 -28.25852168 66.57715133 -27.39453125 68.953125 C-21.6354379 68.75105155 -18.11370594 67.93394712 -13.9375 63.84375 C-6.87698956 55.19239038 -7.4173302 43.58642033 -8.39453125 32.953125 C-8.72453125 31.963125 -9.05453125 30.973125 -9.39453125 29.953125 C-16.44464527 29.52084235 -16.44464527 29.52084235 -22.39453125 32.953125 Z " fill="#AE6C78" transform="translate(584.39453125,307.046875)"/>
<path d="M0 0 C4.29 0 8.58 0 13 0 C13 3.96 13 7.92 13 12 C14.36382812 11.75765625 15.72765625 11.5153125 17.1328125 11.265625 C65.92057397 2.88016249 116.5238816 -0.58900141 166 0 C166 3.63 166 7.26 166 11 C164.7617749 11.03963867 163.5235498 11.07927734 162.24780273 11.12011719 C112.41103456 12.75748031 63.20357424 16.82456891 14 25 C13.11827624 41.3204499 12.7131555 57.62599593 12.44775391 73.96679688 C12.3957625 77.09772868 12.3387219 80.22853971 12.28125 83.359375 C12.26767456 84.29698669 12.25409912 85.23459839 12.2401123 86.20062256 C12.13407179 91.86203597 11.70684628 97.3810013 11 103 C6.71 103 2.42 103 -2 103 C-2.0560756 86.95169788 -1.91210354 70.91940171 -1.5625 54.875 C-1.54043488 53.82313507 -1.51836975 52.77127014 -1.49563599 51.68753052 C-1.13400043 34.45283149 -0.65345635 17.22622169 0 0 Z " fill="#913242" transform="translate(250,266)"/>
<path d="M0 0 C5.61 0 11.22 0 17 0 C17.03008676 9.60415752 17.05110744 19.20830394 17.0625 28.8125 C17.06335602 29.52898712 17.06421204 30.24547424 17.06509399 30.9836731 C17.09462173 58.99919108 16.70130572 86.9925355 16 115 C17.12752686 114.99214478 17.12752686 114.99214478 18.27783203 114.98413086 C37.54823957 114.86906191 56.74445454 115.23524075 76 116 C76 120.29 76 124.58 76 129 C50.26 129 24.52 129 -2 129 C-2 113.16410477 -1.8855841 97.51427261 -1.25830078 81.72070312 C-0.72627862 67.07918459 -0.64103555 52.42304391 -0.46777344 37.77380371 C-0.41644856 33.49500559 -0.36135763 29.21625585 -0.30664062 24.9375 C-0.2008669 16.62504077 -0.09941544 8.3125377 0 0 Z " fill="#923545" transform="translate(425,267)"/>
<path d="M0 0 C5.61 0 11.22 0 17 0 C16.85524741 9.04168422 16.70942374 18.08335081 16.5625 27.125 C16.55147877 27.80328732 16.54045753 28.48157463 16.52910233 29.18041611 C16.06377985 57.78785639 15.53973907 86.39382952 15 115 C45.195 115.495 45.195 115.495 76 116 C76 120.62 76 125.24 76 130 C50.26 129.67 24.52 129.34 -2 129 C-2 101.42830864 -2 101.42830864 -1.81640625 92.63671875 C-1.79689911 91.6090892 -1.77739197 90.58145966 -1.7572937 89.52268982 C-1.69453763 86.24424671 -1.6285796 82.96587764 -1.5625 79.6875 C-1.51745714 77.3676797 -1.4726208 75.04785539 -1.42797852 72.72802734 C-1.31165434 66.71132338 -1.19258303 60.69467703 -1.07287598 54.67803955 C-0.95052176 48.50284088 -0.83085341 42.32759017 -0.7109375 36.15234375 C-0.47653956 24.10151105 -0.23923014 12.05073768 0 0 Z " fill="#913343" transform="translate(223,263)"/>
<path d="M0 0 C2.19691139 1.40619425 3.50126946 2.81847583 5.1328125 4.84765625 C33.19351664 37.78331323 77.98516492 49.26402532 118.8828125 55.97265625 C119.59429443 56.09205566 120.30577637 56.21145508 121.03881836 56.33447266 C127.99308683 57.42648482 134.98585771 57.85865497 142.0078125 58.28515625 C143.10770508 58.35226807 144.20759766 58.41937988 145.34082031 58.48852539 C189.41251395 60.93441971 232.96186796 56.86600465 276.0078125 47.28515625 C276.99797363 47.06778809 277.98813477 46.85041992 279.00830078 46.62646484 C304.22579117 41.03114397 328.88713839 33.5121124 353.0078125 24.28515625 C354.63926375 23.67041586 356.2707732 23.05582992 357.90234375 22.44140625 C365.89202602 19.40521164 373.6598884 16.18091433 381.30859375 12.3515625 C384.10134559 11.24820323 386.03691149 11.06328568 389.0078125 11.28515625 C389.3378125 12.27515625 389.6678125 13.26515625 390.0078125 14.28515625 C387.43498874 17.3267335 384.58825355 18.53056867 380.953125 20.0703125 C380.34804108 20.32759125 379.74295715 20.58487 379.11953735 20.84994507 C377.12777771 21.69195566 375.13093752 22.52087349 373.1328125 23.34765625 C372.44674927 23.6338382 371.76068604 23.92002014 371.05383301 24.21487427 C357.59641343 29.81589672 343.96461139 34.71621165 330.11376953 39.26416016 C327.43588161 40.14444056 324.76592785 41.04426426 322.09765625 41.953125 C300.68473852 49.12044258 278.23251804 54.37336495 256.0078125 58.28515625 C255.0914502 58.44967285 254.17508789 58.61418945 253.23095703 58.78369141 C235.91195285 61.85488593 218.52931482 63.79552696 201.0078125 65.28515625 C200.15171387 65.35863281 199.29561523 65.43210937 198.41357422 65.5078125 C174.6801773 67.44145437 150.66717602 66.73424053 127.0078125 64.28515625 C126.02232422 64.18332031 125.03683594 64.08148438 124.02148438 63.9765625 C76.49268488 58.85369788 26.6673752 44.1641591 -5.9921875 7.28515625 C-7.3203125 4.9375 -7.3203125 4.9375 -7.9921875 3.28515625 C-5.60256355 0.66794907 -3.71781649 -1.33404004 0 0 Z " fill="#903141" transform="translate(309.9921875,431.71484375)"/>
<path d="M0 0 C4.96342697 3.14091863 7.71136639 5.92113318 10.25 11.265625 C10.75015625 12.296875 11.2503125 13.328125 11.765625 14.390625 C16.33584845 25.03519608 16.14016567 41.62419962 11.875 52.328125 C7.81398103 60.07477463 3.28000186 65.14805345 -5 68.265625 C-11.71833479 70.2542521 -17.9559555 70.10912305 -24.3125 67.078125 C-30.48209739 63.63552834 -34.27219696 59.83715049 -37 53.265625 C-37.41958984 52.3065625 -37.41958984 52.3065625 -37.84765625 51.328125 C-42.04228553 40.09042051 -41.82741252 24.25026556 -37 13.265625 C-29.5607634 -1.26522031 -15.2747222 -7.51802733 0 0 Z M-10 23.265625 C-16.92056505 31.83585963 -17.77098834 41.56074846 -17 52.265625 C-16.51684266 54.73972377 -15.86399043 56.88965133 -15 59.265625 C-9.24090665 59.06355155 -5.71917469 58.24644712 -1.54296875 54.15625 C5.51754169 45.50489038 4.97720105 33.89892033 4 23.265625 C3.67 22.275625 3.34 21.285625 3 20.265625 C-4.05011402 19.83334235 -4.05011402 19.83334235 -10 23.265625 Z " fill="#F1EBE9" transform="translate(572,316.734375)"/>
<path d="M0 0 C9.1865315 8.55973191 10.90821632 19.17415805 11.39453125 31.33203125 C11.19409054 42.21309835 7.84197069 51.8308519 0.76953125 60.08203125 C-6.00663936 65.93417859 -11.64181632 67.14505209 -20.640625 66.828125 C-27.67777527 66.04621941 -31.33250263 63.5674216 -35.79296875 58.14453125 C-42.19079259 49.26919021 -43.1904896 40.97518647 -43.29296875 30.26953125 C-43.32197266 29.27888672 -43.35097656 28.28824219 -43.38085938 27.26757812 C-43.46659589 17.21002565 -40.44422207 8.27012941 -33.453125 0.83203125 C-24.01099912 -8.07482672 -10.09481441 -7.86479624 0 0 Z M-14.36328125 21.828125 C-20.58678345 29.59818612 -21.89122596 39.79703267 -20.98046875 49.45703125 C-20.48143706 51.90953743 -19.82141942 54.0918575 -18.98046875 56.45703125 C-13.96430922 56.75209946 -10.98365646 56.59466486 -6.98046875 53.45703125 C-1.05598142 47.35829429 0.37835976 40.5868647 0.33203125 32.38671875 C0.31140625 31.46117187 0.29078125 30.535625 0.26953125 29.58203125 C0.264375 28.63328125 0.25921875 27.68453125 0.25390625 26.70703125 C0.36923014 21.92298092 0.36923014 21.92298092 -0.98046875 17.45703125 C-6.42055423 17.06845372 -10.3809328 17.87952526 -14.36328125 21.828125 Z " fill="#F1ECEA" transform="translate(372.98046875,315.54296875)"/>
<path d="M0 0 C3.93587535 2.10365752 6.68306218 4.52905959 9.0625 8.28125 C9.43739451 9.93906272 9.77718027 11.6056959 10.0625 13.28125 C9.31484375 13.36761719 8.5671875 13.45398438 7.796875 13.54296875 C1.64911494 14.30640046 1.64911494 14.30640046 -3.4375 17.53125 C-3.9325 18.43875 -4.4275 19.34625 -4.9375 20.28125 C-5.494375 21.23 -6.05125 22.17875 -6.625 23.15625 C-9.3312415 29.59968213 -9.06791063 36.34932839 -9 43.21875 C-8.99548828 44.09337891 -8.99097656 44.96800781 -8.98632812 45.86914062 C-8.97464834 48.00654047 -8.95671689 50.14390463 -8.9375 52.28125 C-12.86102645 51.78164986 -14.65197506 51.06500375 -17.125 47.96875 C-17.61355469 47.37449219 -18.10210938 46.78023438 -18.60546875 46.16796875 C-24.429128 37.91920799 -23.81068741 26.04096325 -22.9375 16.28125 C-21.41689516 9.34729192 -18.35863583 4.7796393 -12.9375 0.28125 C-8.59152177 -1.16740941 -4.33374753 -1.60768053 0 0 Z " fill="#923545" transform="translate(564.9375,323.71875)"/>
<path d="M0 0 C3.41728766 1.94316357 5.12648907 3.48317466 7.1875 6.8125 C7.9375 9.625 7.9375 9.625 8.1875 11.8125 C7.59582031 11.89886719 7.00414062 11.98523438 6.39453125 12.07421875 C0.84824258 13.06042669 -2.31682205 14.1183039 -5.8125 18.8125 C-11.33525738 29.12788751 -11.84065252 39.4041421 -9.8125 50.8125 C-12.76069394 51.08604377 -14.29128098 51.193309 -16.7265625 49.4140625 C-24.17894063 40.80469416 -25.37299762 32.68046535 -25.08984375 21.43359375 C-24.3839749 12.2175315 -21.6537174 6.12620184 -14.8125 -0.1875 C-10.19608247 -2.49570876 -4.73523018 -1.47490776 0 0 Z " fill="#923544" transform="translate(363.8125,321.1875)"/>
<path d="M0 0 C2.4375 1.5 2.4375 1.5 4 4 C4.80456501 8.04770849 4.68494481 10.97258279 2.375 14.4375 C-0.63781152 16.41961284 -2.37134149 17.07257317 -6 17 C-9.375 15 -9.375 15 -12 12 C-12.6875 8.5 -12.6875 8.5 -12 5 C-8.59008657 0.14345663 -5.84624621 -0.95665847 0 0 Z " fill="#903141" transform="translate(697,295)"/>
<path d="M0 0 C2.25157667 1.08409247 4.26128523 2.18360583 6.3125 3.625 C9.69496613 5.35556406 12.25255262 5.22043808 16 5 C15.195625 5.99 14.39125 6.98 13.5625 8 C10.67317108 11.99119164 10.25616233 15.13291572 10 20 C7.53199953 18.84826645 5.95216435 17.95216435 4 16 C1.79749008 15.53993654 1.79749008 15.53993654 -0.625 15.375 C-1.44226563 15.30023438 -2.25953125 15.22546875 -3.1015625 15.1484375 C-3.72804687 15.09945313 -4.35453125 15.05046875 -5 15 C-3.90227784 12.73773782 -2.79961308 10.7071268 -1.375 8.625 C0.24504005 5.53219627 0.24020057 3.44287486 0 0 Z " fill="#903041" transform="translate(166,343)"/>
<path d="M0 0 C2.4375 0.75 2.4375 0.75 4.4375 2.75 C4.8125 5.6875 4.8125 5.6875 4.4375 8.75 C2.8125 10.75 2.8125 10.75 0.4375 11.75 C-4.79326923 10.51923077 -4.79326923 10.51923077 -6.5625 8.75 C-6.3125 5.3125 -6.3125 5.3125 -5.5625 1.75 C-2.5625 -0.25 -2.5625 -0.25 0 0 Z " fill="#903141" transform="translate(675.5625,287.25)"/>
<path d="M0 0 C0.8353125 0.928125 0.8353125 0.928125 1.6875 1.875 C4.06645178 4.06106379 5.96357096 4.98785699 9 6 C8.21625 6.763125 7.4325 7.52625 6.625 8.3125 C3.92742283 10.90891805 3.92742283 10.90891805 2 14 C1.4225 13.360625 0.845 12.72125 0.25 12.0625 C-1.98062401 10.01776132 -3.07436391 9.41794801 -6 9 C-6 7 -6 7 -3.5625 4.5 C-2.716875 3.675 -1.87125 2.85 -1 2 C-0.67 1.34 -0.34 0.68 0 0 Z " fill="#903041" transform="translate(151,341)"/>
<path d="M0 0 C0.78375 0.639375 1.5675 1.27875 2.375 1.9375 C4.79539281 3.98142313 4.79539281 3.98142313 7 5 C7 5.66 7 6.32 7 7 C5.35666496 8.03789581 3.68756133 9.03567924 2 10 C1.34 10.66 0.68 11.32 0 12 C-0.433125 11.360625 -0.86625 10.72125 -1.3125 10.0625 C-2.91239177 7.73253997 -2.91239177 7.73253997 -6 7 C-5.67 6.01 -5.34 5.02 -5 4 C-4.01 4 -3.02 4 -2 4 C-1.34 2.68 -0.68 1.36 0 0 Z " fill="#903041" transform="translate(163,326)"/>
<path d="M0 0 C1 1 1 1 1.125 4 C1 7 1 7 0 8 C-2.4375 8.1875 -2.4375 8.1875 -5 8 C-5.66 7.34 -6.32 6.68 -7 6 C-6.75 2.9375 -6.75 2.9375 -6 0 C-3.49749232 -1.25125384 -2.59701335 -0.83774624 0 0 Z " fill="#903041" transform="translate(663,284)"/>
</svg>
